<svg xmlns="http://www.w3.org/2000/svg" aria-hidden="true">
  <defs>
    <symbol id="icon-telegram" viewBox="0 0 32 32">
      <path fill="#f19000" d="M15.925 0A15.998 15.998 0 0 0 0 16a16.003 16.003 0 0 0 16 16 16.003 16.003 0 0 0 16-16A16.003 16.003 0 0 0 16 0h-.075zm6.616 9.632c.133-.003.428.031.62.187a.672.672 0 0 1 .228.433c.021.124.048.408.027.629-.24 2.531-1.283 8.669-1.813 11.503-.224 1.2-.665 1.601-1.093 1.64-.928.087-1.633-.613-2.533-1.203-1.408-.924-2.204-1.499-3.571-2.4-1.58-1.04-.556-1.613.344-2.547.236-.245 4.329-3.969 4.409-4.307.009-.043.019-.2-.075-.283s-.232-.055-.332-.032c-.141.032-2.391 1.52-6.748 4.46-.64.44-1.217.653-1.736.64-.571-.011-1.669-.321-2.487-.587-1.003-.327-1.799-.499-1.729-1.052.036-.288.433-.583 1.191-.884 4.664-2.032 7.773-3.372 9.331-4.019 4.443-1.848 5.367-2.169 5.968-2.18z" style="fill:var(--color3, #f19000)"/>
    </symbol>
    
    <symbol id="icon-instagram" width="32" height="32">
  <path fill="#f19000" d="M24.5 0h-17A7.5 7.5 0 0 0 0 7.5v17A7.5 7.5 0 0 0 7.5 32h17a7.5 7.5 0 0 0 7.5-7.5v-17A7.5 7.5 0 0 0 24.5 0z" style="fill:var(--color3, #f19000)"/>
  <path fill="#f19000"  d="M24.5 0h-17A7.5 7.5 0 0 0 0 7.5v17A7.5 7.5 0 0 0 7.5 32h17a7.5 7.5 0 0 0 7.5-7.5v-17A7.5 7.5 0 0 0 24.5 0z" style="fill:var(--color3, #f19000)"/>
  <path fill="#000" d="M16.001 3.5c-3.395 0-3.821.015-5.154.075-1.331.061-2.239.272-3.034.581-.822.319-1.52.746-2.214 1.441S4.476 6.989 4.156 7.811c-.31.795-.521 1.704-.581 3.034-.06 1.333-.075 1.76-.075 5.154s.015 3.82.075 5.153c.061 1.331.272 2.239.581 3.034.319.822.747 1.52 1.442 2.214s1.392 1.123 2.214 1.443c.795.309 1.704.52 3.034.581 1.333.061 1.759.076 5.154.076s3.82-.015 5.153-.076c1.331-.061 2.24-.272 3.035-.581.822-.319 1.518-.747 2.213-1.443s1.122-1.392 1.443-2.214c.307-.795.518-1.704.581-3.034.06-1.333.076-1.758.076-5.153s-.016-3.821-.076-5.154c-.063-1.331-.273-2.239-.581-3.034-.32-.822-.747-1.52-1.443-2.215s-1.391-1.122-2.213-1.441c-.797-.309-1.706-.52-3.037-.581-1.333-.061-1.758-.075-5.154-.075h.004zM14.88 5.753h1.121c3.338 0 3.733.012 5.051.072 1.219.056 1.88.259 2.321.431.583.226.999.497 1.436.935s.708.854.935 1.438c.171.44.375 1.101.43 2.32.06 1.318.073 1.713.073 5.049s-.013 3.732-.073 5.05c-.056 1.219-.259 1.88-.43 2.32-.227.583-.498.999-.935 1.436s-.853.708-1.436.935c-.44.172-1.102.375-2.321.431-1.318.06-1.713.073-5.051.073s-3.733-.013-5.051-.073c-1.219-.056-1.88-.26-2.321-.431-.583-.227-1-.497-1.438-.935s-.708-.853-.935-1.437c-.171-.44-.375-1.102-.431-2.32-.06-1.318-.072-1.713-.072-5.052s.012-3.732.072-5.05c.056-1.219.259-1.88.431-2.321.227-.583.498-1 .936-1.438s.854-.708 1.438-.935c.441-.172 1.102-.375 2.321-.431 1.153-.052 1.6-.068 3.93-.07v.003zm7.794 2.075a1.5 1.5 0 1 0 0 3.001 1.5 1.5 0 0 0 0-3.002zm-6.673 1.753a6.42 6.42 0 1 0 .002 12.838A6.42 6.42 0 0 0 16 9.581zm0 2.252a4.167 4.167 0 1 1 0 8.334 4.167 4.167 0 0 1 0-8.334z"/>
</symbol>

<symbol id="" xmlns="http://www.w3.org/2000/svg" width="32" height="32">
  <path d="M20 18.641c0-.078 0-.172-.031-.25-.094-.281-2.375-1.437-2.812-1.687-.297-.172-.656-.516-1.016-.516-.688 0-1.703 2.047-2.312 2.047-.313 0-.703-.281-.984-.438-2.063-1.156-3.484-2.578-4.641-4.641-.156-.281-.438-.672-.438-.984 0-.609 2.047-1.625 2.047-2.312 0-.359-.344-.719-.516-1.016-.25-.438-1.406-2.719-1.687-2.812-.078-.031-.172-.031-.25-.031-.406 0-1.203.187-1.578.344-1.031.469-1.781 2.438-1.781 3.516 0 1.047.422 2 .781 2.969 1.25 3.422 4.969 7.141 8.391 8.391.969.359 1.922.781 2.969.781 1.078 0 3.047-.75 3.516-1.781.156-.375.344-1.172.344-1.578zM24 6.5v15c0 2.484-2.016 4.5-4.5 4.5h-15A4.502 4.502 0 0 1 0 21.5v-15C0 4.016 2.016 2 4.5 2h15C21.984 2 24 4.016 24 6.5z" style="fill:var(--color3, #f19000)"/>
</symbol>
    


  <!--Mobile menu--> 

  <symbol id="burger-menu" viewBox="0 0 32 32" fill="none" xmlns="http://www.w3.org/2000/svg">
<path d="M6 10H26" stroke="#F19000" stroke-width="2" stroke-linecap="round" style="stroke:var(--color3, #f19000)"/>
<path d="M6 16.0001H26" stroke="#F19000" stroke-width="2" stroke-linecap="round" style="stroke:var(--color3, #f19000)"/>
<path d="M6 21.9999H26" stroke="#F19000" stroke-width="2" stroke-linecap="round" style="stroke:var(--color3, #f19000)"/>
</symbol>

<symbol id="menu-close" viewBox="0 0 40 40" fill="none" xmlns="http://www.w3.org/2000/svg">
<path d="M29.6667 12.88L27.7867 11L20.3333 18.4533L12.88 11L11 12.88L18.4533 20.3333L11 27.7867L12.88 29.6667L20.3333 22.2133L27.7867 29.6667L29.6667 27.7867L22.2133 20.3333L29.6667 12.88Z" fill="#F19000" style="fill:var(--color3, #f19000)"/>
</symbol>



  </defs>
</svg>