<svg xmlns="http://www.w3.org/2000/svg" aria-hidden="true">
  <defs>
    <symbol id="icon-instagram" viewBox="0 0 32 32">
      <path  d="M24.5 0h-17A7.5 7.5 0 0 0 0 7.5v17A7.5 7.5 0 0 0 7.5 32h17a7.5 7.5 0 0 0 7.5-7.5v-17A7.5 7.5 0 0 0 24.5 0z" 
      style="fill:var(--color1, #000)"/>
      <path  d="M24.5 0h-17A7.5 7.5 0 0 0 0 7.5v17A7.5 7.5 0 0 0 7.5 32h17a7.5 7.5 0 0 0 7.5-7.5v-17A7.5 7.5 0 0 0 24.5 0z" 
      style="fill:var(--color1, #000)"/>
      <path fill="#fff" d="M16.001 3.5c-3.395 0-3.821.015-5.154.075-1.331.061-2.239.272-3.034.581-.822.319-1.52.746-2.214 1.441S4.476 6.989 4.156 7.811c-.31.795-.521 1.704-.581 3.034-.06 1.333-.075 1.76-.075 5.154s.015 3.82.075 5.153c.061 1.331.272 2.239.581 3.034.319.822.747 1.52 1.442 2.214s1.392 1.123 2.214 1.443c.795.309 1.704.52 3.034.581 1.333.061 1.759.076 5.154.076s3.82-.015 5.153-.076c1.331-.061 2.24-.272 3.035-.581.822-.319 1.518-.747 2.213-1.443s1.122-1.392 1.443-2.214c.307-.795.518-1.704.581-3.034.06-1.333.076-1.758.076-5.153s-.016-3.821-.076-5.154c-.063-1.331-.273-2.239-.581-3.034-.32-.822-.747-1.52-1.443-2.215s-1.391-1.122-2.213-1.441c-.797-.309-1.706-.52-3.037-.581-1.333-.061-1.758-.075-5.154-.075h.004zM14.88 5.753h1.121c3.338 0 3.733.012 5.051.072 1.219.056 1.88.259 2.321.431.583.226.999.497 1.436.935s.708.854.935 1.438c.171.44.375 1.101.43 2.32.06 1.318.073 1.713.073 5.049s-.013 3.732-.073 5.05c-.056 1.219-.259 1.88-.43 2.32-.227.583-.498.999-.935 1.436s-.853.708-1.436.935c-.44.172-1.102.375-2.321.431-1.318.06-1.713.073-5.051.073s-3.733-.013-5.051-.073c-1.219-.056-1.88-.26-2.321-.431-.583-.227-1-.497-1.438-.935s-.708-.853-.935-1.437c-.171-.44-.375-1.102-.431-2.32-.06-1.318-.072-1.713-.072-5.052s.012-3.732.072-5.05c.056-1.219.259-1.88.431-2.321.227-.583.498-1 .936-1.438s.854-.708 1.438-.935c.441-.172 1.102-.375 2.321-.431 1.153-.052 1.6-.068 3.93-.07v.003zm7.794 2.075a1.5 1.5 0 1 0 0 3.001 1.5 1.5 0 0 0 0-3.002zm-6.673 1.753a6.42 6.42 0 1 0 .002 12.838A6.42 6.42 0 0 0 16 9.581zm0 2.252a4.167 4.167 0 1 1 0 8.334 4.167 4.167 0 0 1 0-8.334z" 
      style="fill:var(--color2, #fff)"/>
    </symbol>
    <symbol id="icon-telegram" viewBox="0 0 32 32">
      <path fill="#07b4fe" d="M15.925 0A15.998 15.998 0 0 0 0 16a16.003 16.003 0 0 0 16 16 16.003 16.003 0 0 0 16-16A16.003 16.003 0 0 0 16 0h-.075zm6.616 9.632c.133-.003.428.031.62.187a.672.672 0 0 1 .228.433c.021.124.048.408.027.629-.24 2.531-1.283 8.669-1.813 11.503-.224 1.2-.665 1.601-1.093 1.64-.928.087-1.633-.613-2.533-1.203-1.408-.924-2.204-1.499-3.571-2.4-1.58-1.04-.556-1.613.344-2.547.236-.245 4.329-3.969 4.409-4.307.009-.043.019-.2-.075-.283s-.232-.055-.332-.032c-.141.032-2.391 1.52-6.748 4.46-.64.44-1.217.653-1.736.64-.571-.011-1.669-.321-2.487-.587-1.003-.327-1.799-.499-1.729-1.052.036-.288.433-.583 1.191-.884 4.664-2.032 7.773-3.372 9.331-4.019 4.443-1.848 5.367-2.169 5.968-2.18z" style="fill:var(--color3, #07b4fe)"/>
    </symbol>
    <symbol id="icon-instagram2" viewBox="0 0 32 32">
    <path fill="url(#a)" d="M24.5 0h-17A7.5 7.5 0 0 0 0 7.5v17A7.5 7.5 0 0 0 7.5 32h17a7.5 7.5 0 0 0 7.5-7.5v-17A7.5 7.5 0 0 0 24.5 0Z"/>
  <path fill="url(#b)" d="M24.5 0h-17A7.5 7.5 0 0 0 0 7.5v17A7.5 7.5 0 0 0 7.5 32h17a7.5 7.5 0 0 0 7.5-7.5v-17A7.5 7.5 0 0 0 24.5 0Z"/>
  <path fill="#fff" d="M16.001 3.5c-3.395 0-3.82.015-5.154.075-1.33.061-2.24.272-3.034.581A6.12 6.12 0 0 0 5.6 5.598a6.136 6.136 0 0 0-1.443 2.214c-.31.795-.52 1.703-.58 3.034-.06 1.333-.076 1.76-.076 5.154 0 3.395.015 3.82.075 5.153.062 1.33.272 2.24.581 3.034.32.822.747 1.52 1.442 2.214a6.122 6.122 0 0 0 2.213 1.443c.796.31 1.704.52 3.035.58 1.333.061 1.759.076 5.154.076s3.82-.015 5.153-.075c1.33-.061 2.24-.272 3.035-.581a6.116 6.116 0 0 0 2.213-1.443 6.137 6.137 0 0 0 1.443-2.214c.307-.795.518-1.704.58-3.034.06-1.333.076-1.758.076-5.153 0-3.395-.016-3.82-.076-5.154-.062-1.33-.273-2.24-.58-3.034A6.136 6.136 0 0 0 26.4 5.598a6.108 6.108 0 0 0-2.213-1.442c-.797-.309-1.706-.52-3.037-.58-1.333-.061-1.758-.076-5.154-.076h.004ZM14.88 5.753H16c3.338 0 3.733.012 5.051.071 1.219.056 1.88.26 2.321.431.583.226 1 .497 1.437.935.437.438.708.854.935 1.437.171.44.375 1.102.43 2.32.06 1.319.073 1.714.073 5.05s-.013 3.732-.073 5.05c-.055 1.218-.259 1.88-.43 2.32a3.863 3.863 0 0 1-.935 1.436 3.865 3.865 0 0 1-1.437.935c-.44.172-1.102.375-2.32.43-1.319.06-1.714.074-5.052.074-3.338 0-3.733-.013-5.05-.073-1.22-.056-1.881-.26-2.322-.431-.583-.227-1-.498-1.438-.935a3.874 3.874 0 0 1-.935-1.437c-.171-.44-.375-1.101-.43-2.32-.06-1.318-.072-1.714-.072-5.052 0-3.338.012-3.732.072-5.05.055-1.218.259-1.88.43-2.32.227-.584.498-1 .935-1.438a3.878 3.878 0 0 1 1.438-.935c.44-.172 1.102-.375 2.321-.431 1.153-.052 1.6-.068 3.93-.07v.003Zm7.794 2.075a1.5 1.5 0 1 0 0 3 1.5 1.5 0 0 0 0-3ZM16 9.581a6.42 6.42 0 1 0 .001 12.839 6.42 6.42 0 0 0-.001-12.84Zm0 2.252a4.167 4.167 0 1 1 0 8.334 4.167 4.167 0 0 1 0-8.334Z"/>
  <defs>
    <radialGradient id="a" cx="0" cy="0" r="1" gradientTransform="matrix(0 -31.7144 29.4969 0 8.5 34.465)" gradientUnits="userSpaceOnUse">
      <stop stop-color="#FD5"/>
      <stop offset=".1" stop-color="#FD5"/>
      <stop offset=".5" stop-color="#FF543E"/>
      <stop offset="1" stop-color="#C837AB"/>
    </radialGradient>
    <radialGradient id="b" cx="0" cy="0" r="1" gradientTransform="matrix(2.78244 13.90076 -57.2994 11.46931 -5.36 2.305)" gradientUnits="userSpaceOnUse">
      <stop stop-color="#3771C8"/>
      <stop offset=".128" stop-color="#3771C8"/>
      <stop offset="1" stop-color="#60F" stop-opacity="0"/>
    </radialGradient>
  </defs>
    </symbol>
  </defs>
</svg>